<svg width="27" height="26" viewBox="0 0 27 26" fill="none" xmlns="http://www.w3.org/2000/svg">
    <path
        d="M8.94996 2.1665H18.05C21.5166 2.1665 24.3333 4.98317 24.3333 8.44984V17.5498C24.3333 19.2163 23.6713 20.8145 22.4929 21.9928C21.3146 23.1712 19.7164 23.8332 18.05 23.8332H8.94996C5.48329 23.8332 2.66663 21.0165 2.66663 17.5498V8.44984C2.66663 6.78339 3.32862 5.1852 4.50697 4.00685C5.68533 2.8285 7.28352 2.1665 8.94996 2.1665ZM8.73329 4.33317C7.69895 4.33317 6.70697 4.74406 5.97558 5.47545C5.24418 6.20685 4.83329 7.19883 4.83329 8.23317V17.7665C4.83329 19.9223 6.57746 21.6665 8.73329 21.6665H18.2666C19.301 21.6665 20.293 21.2556 21.0243 20.5242C21.7557 19.7928 22.1666 18.8008 22.1666 17.7665V8.23317C22.1666 6.07734 20.4225 4.33317 18.2666 4.33317H8.73329ZM19.1875 5.95817C19.5466 5.95817 19.891 6.10084 20.145 6.3548C20.399 6.60875 20.5416 6.95319 20.5416 7.31234C20.5416 7.67148 20.399 8.01592 20.145 8.26988C19.891 8.52383 19.5466 8.6665 19.1875 8.6665C18.8283 8.6665 18.4839 8.52383 18.2299 8.26988C17.976 8.01592 17.8333 7.67148 17.8333 7.31234C17.8333 6.95319 17.976 6.60875 18.2299 6.3548C18.4839 6.10084 18.8283 5.95817 19.1875 5.95817ZM13.5 7.58317C14.9365 7.58317 16.3143 8.15385 17.3301 9.16967C18.3459 10.1855 18.9166 11.5632 18.9166 12.9998C18.9166 14.4364 18.3459 15.8142 17.3301 16.83C16.3143 17.8458 14.9365 18.4165 13.5 18.4165C12.0634 18.4165 10.6856 17.8458 9.6698 16.83C8.65398 15.8142 8.08329 14.4364 8.08329 12.9998C8.08329 11.5632 8.65398 10.1855 9.6698 9.16967C10.6856 8.15385 12.0634 7.58317 13.5 7.58317ZM13.5 9.74984C12.638 9.74984 11.8114 10.0922 11.2019 10.7017C10.5924 11.3112 10.25 12.1379 10.25 12.9998C10.25 13.8618 10.5924 14.6884 11.2019 15.2979C11.8114 15.9074 12.638 16.2498 13.5 16.2498C14.3619 16.2498 15.1886 15.9074 15.7981 15.2979C16.4075 14.6884 16.75 13.8618 16.75 12.9998C16.75 12.1379 16.4075 11.3112 15.7981 10.7017C15.1886 10.0922 14.3619 9.74984 13.5 9.74984Z"
        fill="#E5E4E2" />
</svg>    