<svg width="27" height="26" viewBox="0 0 27 26" fill="none" xmlns="http://www.w3.org/2000/svg">
    <path
        d="M8.01839 5.41677C8.01811 5.99141 7.78956 6.5424 7.38302 6.94852C6.97649 7.35465 6.42528 7.58264 5.85064 7.58236C5.27601 7.58207 4.72502 7.35352 4.31889 6.94699C3.91277 6.54046 3.68477 5.98924 3.68506 5.41461C3.68535 4.83997 3.91389 4.28899 4.32043 3.88286C4.72696 3.47673 5.27817 3.24874 5.85281 3.24902C6.42744 3.24931 6.97843 3.47786 7.38456 3.88439C7.79068 4.29092 8.01868 4.84214 8.01839 5.41677ZM8.08339 9.18677H3.75006V22.7501H8.08339V9.18677ZM14.9301 9.18677H10.6184V22.7501H14.8867V15.6326C14.8867 11.6676 20.0542 11.2993 20.0542 15.6326V22.7501H24.3334V14.1593C24.3334 7.47511 16.6851 7.72427 14.8867 11.0068L14.9301 9.18677Z"
        fill="#E5E4E2" />
</svg>