<svg xmlns="http://www.w3.org/2000/svg" width="144" height="34" viewBox="0 0 144 34" fill="none">
    <rect x="12.8096" y="17.2845" width="3.06023" height="8.80962"
        transform="rotate(90 12.8096 17.2845)" fill="#CC0000" />
    <path fill-rule="evenodd" clip-rule="evenodd"
        d="M14.6264 4H11.5634V15.608H14.6264V4ZM7.24213 6.64627H10.3051V15.6084H7.24213V6.64627ZM23.4321 25.2478V17.2845H14.6807L14.6807 22.0367H8.88309L8.88309 30.0001H17.6345V25.2478L23.4321 25.2478ZM15.8852 5.12189H18.9482V15.6079H15.8852V5.12189ZM23.2695 7.55892H20.2064V15.6078H23.2695V7.55892Z"
        fill="#030200" />
    <path
        d="M37.6871 24.9985V22.7101L37.4689 22.2088V18.1115C37.4689 17.385 37.2435 16.8183 36.7927 16.4115C36.3564 16.0047 35.6802 15.8013 34.764 15.8013C34.1386 15.8013 33.5205 15.903 32.9097 16.1064C32.3135 16.2953 31.8045 16.5568 31.3827 16.891L30.1611 14.5154C30.801 14.065 31.5718 13.7163 32.4735 13.4693C33.3751 13.2223 34.2913 13.0988 35.2221 13.0988C37.0108 13.0988 38.3997 13.5201 39.3886 14.3628C40.3775 15.2056 40.872 16.5205 40.872 18.3076V24.9985H37.6871ZM34.1095 25.1729C33.1933 25.1729 32.408 25.0203 31.7536 24.7152C31.0992 24.3955 30.5974 23.9669 30.2484 23.4293C29.8994 22.8917 29.7249 22.2888 29.7249 21.6204C29.7249 20.923 29.8921 20.3127 30.2266 19.7897C30.5756 19.2666 31.121 18.8598 31.8627 18.5692C32.6043 18.264 33.5714 18.1115 34.764 18.1115H37.8834V20.0948H35.1348C34.3349 20.0948 33.7823 20.2255 33.4769 20.4871C33.1861 20.7486 33.0406 21.0755 33.0406 21.4678C33.0406 21.9037 33.2079 22.2524 33.5424 22.514C33.8914 22.761 34.364 22.8845 34.9603 22.8845C35.5275 22.8845 36.0365 22.7537 36.4873 22.4922C36.9381 22.2161 37.2653 21.8165 37.4689 21.2935L37.9925 22.8627C37.7452 23.6182 37.2944 24.1921 36.64 24.5844C35.9856 24.9767 35.1421 25.1729 34.1095 25.1729Z"
        fill="#030200" />
    <path
        d="M58.9819 13.0988C59.9127 13.0988 60.7343 13.2876 61.4469 13.6654C62.1741 14.0287 62.7413 14.5953 63.1485 15.3654C63.5702 16.1209 63.7811 17.0944 63.7811 18.2858V24.9985H60.378V18.8089C60.378 17.8645 60.1817 17.1671 59.7891 16.7166C59.3964 16.2662 58.8438 16.041 58.1312 16.041C57.6367 16.041 57.1931 16.1572 56.8005 16.3897C56.4078 16.6077 56.1024 16.9418 55.8843 17.3923C55.6662 17.8427 55.5571 18.4166 55.5571 19.114V24.9985H52.154V18.8089C52.154 17.8645 51.9577 17.1671 51.5651 16.7166C51.1869 16.2662 50.6416 16.041 49.929 16.041C49.4345 16.041 48.991 16.1572 48.5983 16.3897C48.2057 16.6077 47.9003 16.9418 47.6821 17.3923C47.464 17.8427 47.3549 18.4166 47.3549 19.114V24.9985H43.9519V13.2731H47.2022V16.4769L46.5914 15.5397C46.9986 14.7406 47.573 14.1376 48.3147 13.7308C49.071 13.3094 49.929 13.0988 50.8888 13.0988C51.965 13.0988 52.903 13.3748 53.7029 13.9269C54.5173 14.4645 55.0553 15.2927 55.3171 16.4115L54.1173 16.0846C54.51 15.1692 55.1353 14.4427 55.9934 13.9052C56.8659 13.3676 57.8621 13.0988 58.9819 13.0988Z"
        fill="#030200" />
    <path
        d="M66.8313 24.9985V13.2731H70.0817V16.5859L69.6236 15.6269C69.9726 14.7987 70.5325 14.1739 71.3033 13.7526C72.074 13.3167 73.012 13.0988 74.1173 13.0988V16.2372C73.9719 16.2226 73.841 16.2154 73.7246 16.2154C73.6083 16.2008 73.4847 16.1936 73.3538 16.1936C72.4231 16.1936 71.6668 16.4624 71.0851 17C70.5179 17.523 70.2344 18.344 70.2344 19.4627V24.9985H66.8313Z"
        fill="#030200" />
    <path
        d="M82.5726 24.9985V22.7101L82.3544 22.2088V18.1115C82.3544 17.385 82.129 16.8183 81.6782 16.4115C81.2419 16.0047 80.5656 15.8013 79.6494 15.8013C79.0241 15.8013 78.406 15.903 77.7952 16.1064C77.199 16.2953 76.69 16.5568 76.2682 16.891L75.0466 14.5154C75.6865 14.065 76.4573 13.7163 77.3589 13.4693C78.2606 13.2223 79.1768 13.0988 80.1075 13.0988C81.8963 13.0988 83.2852 13.5201 84.2741 14.3628C85.263 15.2056 85.7574 16.5205 85.7574 18.3076V24.9985H82.5726ZM78.995 25.1729C78.0788 25.1729 77.2935 25.0203 76.6391 24.7152C75.9846 24.3955 75.4829 23.9669 75.1339 23.4293C74.7848 22.8917 74.6103 22.2888 74.6103 21.6204C74.6103 20.923 74.7776 20.3127 75.1121 19.7897C75.4611 19.2666 76.0064 18.8598 76.7481 18.5692C77.4898 18.264 78.4569 18.1115 79.6494 18.1115H82.7689V20.0948H80.0203C79.2204 20.0948 78.6678 20.2255 78.3624 20.4871C78.0715 20.7486 77.9261 21.0755 77.9261 21.4678C77.9261 21.9037 78.0934 22.2524 78.4278 22.514C78.7769 22.761 79.2495 22.8845 79.8458 22.8845C80.4129 22.8845 80.9219 22.7537 81.3728 22.4922C81.8236 22.2161 82.1508 21.8165 82.3544 21.2935L82.878 22.8627C82.6307 23.6182 82.1799 24.1921 81.5255 24.5844C80.871 24.9767 80.0276 25.1729 78.995 25.1729Z"
        fill="#030200" />
    <path
        d="M94.1819 25.1075C93.0475 25.1075 92.0295 24.8605 91.1279 24.3665C90.2407 23.858 89.5427 23.1678 89.0337 22.296C88.5247 21.4097 88.2702 20.3999 88.2702 19.2666C88.2702 18.1187 88.5247 17.1089 89.0337 16.2372C89.5427 15.3654 90.2407 14.6825 91.1279 14.1885C92.0295 13.6945 93.0475 13.4475 94.1819 13.4475C95.1562 13.4475 96.0361 13.6364 96.8214 14.0141C97.6067 14.3919 98.2248 14.9585 98.6756 15.7141L97.5194 16.4987C97.1268 15.9175 96.6396 15.4889 96.0579 15.2128C95.4762 14.9368 94.8436 14.7987 94.16 14.7987C93.3456 14.7987 92.6112 14.9876 91.9568 15.3654C91.3024 15.7286 90.7861 16.2444 90.408 16.9128C90.0299 17.5811 89.8408 18.3657 89.8408 19.2666C89.8408 20.1674 90.0299 20.952 90.408 21.6204C90.7861 22.2888 91.3024 22.8118 91.9568 23.1896C92.6112 23.5528 93.3456 23.7345 94.16 23.7345C94.8436 23.7345 95.4762 23.5964 96.0579 23.3204C96.6396 23.0443 97.1268 22.6229 97.5194 22.0563L98.6756 22.8409C98.2248 23.5819 97.6067 24.1485 96.8214 24.5408C96.0361 24.9186 95.1562 25.1075 94.1819 25.1075Z"
        fill="#030200" />
    <path
        d="M106.195 25.1075C105.089 25.1075 104.093 24.8605 103.206 24.3665C102.334 23.858 101.643 23.1678 101.134 22.296C100.625 21.4097 100.37 20.3999 100.37 19.2666C100.37 18.1187 100.625 17.1089 101.134 16.2372C101.643 15.3654 102.334 14.6825 103.206 14.1885C104.079 13.6945 105.075 13.4475 106.195 13.4475C107.329 13.4475 108.333 13.6945 109.205 14.1885C110.092 14.6825 110.783 15.3654 111.277 16.2372C111.786 17.1089 112.041 18.1187 112.041 19.2666C112.041 20.3999 111.786 21.4097 111.277 22.296C110.783 23.1678 110.092 23.858 109.205 24.3665C108.318 24.8605 107.315 25.1075 106.195 25.1075ZM106.195 23.7345C107.024 23.7345 107.758 23.5528 108.398 23.1896C109.038 22.8118 109.54 22.2888 109.903 21.6204C110.281 20.9375 110.47 20.1529 110.47 19.2666C110.47 18.3657 110.281 17.5811 109.903 16.9128C109.54 16.2444 109.038 15.7286 108.398 15.3654C107.758 14.9876 107.031 14.7987 106.217 14.7987C105.402 14.7987 104.675 14.9876 104.035 15.3654C103.395 15.7286 102.886 16.2444 102.508 16.9128C102.13 17.5811 101.941 18.3657 101.941 19.2666C101.941 20.1529 102.13 20.9375 102.508 21.6204C102.886 22.2888 103.395 22.8118 104.035 23.1896C104.675 23.5528 105.395 23.7345 106.195 23.7345Z"
        fill="#030200" />
    <path
        d="M119.762 25.1075C118.671 25.1075 117.69 24.8605 116.817 24.3665C115.959 23.8725 115.283 23.1896 114.789 22.3178C114.294 21.4315 114.047 20.4144 114.047 19.2666C114.047 18.1042 114.294 17.0871 114.789 16.2154C115.283 15.3436 115.959 14.668 116.817 14.1885C117.69 13.6945 118.671 13.4475 119.762 13.4475C120.766 13.4475 121.66 13.6727 122.445 14.1231C123.245 14.5735 123.878 15.2346 124.343 16.1064C124.823 16.9636 125.063 18.017 125.063 19.2666C125.063 20.5016 124.83 21.555 124.365 22.4268C123.9 23.2986 123.267 23.9669 122.467 24.4319C121.682 24.8823 120.78 25.1075 119.762 25.1075ZM119.871 23.7345C120.686 23.7345 121.413 23.5528 122.053 23.1896C122.707 22.8118 123.216 22.2888 123.58 21.6204C123.958 20.9375 124.147 20.1529 124.147 19.2666C124.147 18.3657 123.958 17.5811 123.58 16.9128C123.216 16.2444 122.707 15.7286 122.053 15.3654C121.413 14.9876 120.686 14.7987 119.871 14.7987C119.071 14.7987 118.352 14.9876 117.712 15.3654C117.072 15.7286 116.563 16.2444 116.185 16.9128C115.807 17.5811 115.617 18.3657 115.617 19.2666C115.617 20.1529 115.807 20.9375 116.185 21.6204C116.563 22.2888 117.072 22.8118 117.712 23.1896C118.352 23.5528 119.071 23.7345 119.871 23.7345ZM124.19 24.9985V21.555L124.343 19.2448L124.125 16.9346V8.82704H125.674V24.9985H124.19Z"
        fill="#030200" />
    <path
        d="M134.852 25.1075C133.659 25.1075 132.612 24.8605 131.711 24.3665C130.809 23.858 130.104 23.1678 129.595 22.296C129.086 21.4097 128.831 20.3999 128.831 19.2666C128.831 18.1333 129.071 17.1307 129.551 16.259C130.045 15.3872 130.714 14.7043 131.558 14.2103C132.416 13.7017 133.376 13.4475 134.437 13.4475C135.514 13.4475 136.466 13.6945 137.295 14.1885C138.139 14.668 138.8 15.3508 139.28 16.2372C139.76 17.1089 140 18.1187 140 19.2666C140 19.3392 139.993 19.4191 139.978 19.5063C139.978 19.579 139.978 19.6589 139.978 19.7461H130.009V18.591H139.149L138.539 19.0486C138.539 18.2205 138.357 17.4867 137.993 16.8474C137.644 16.1936 137.164 15.685 136.553 15.3218C135.943 14.9585 135.237 14.7769 134.437 14.7769C133.652 14.7769 132.947 14.9585 132.321 15.3218C131.696 15.685 131.209 16.1936 130.86 16.8474C130.511 17.5012 130.336 18.2495 130.336 19.0922V19.332C130.336 20.2037 130.525 20.9738 130.904 21.6422C131.296 22.296 131.834 22.8118 132.518 23.1896C133.216 23.5528 134.008 23.7345 134.896 23.7345C135.594 23.7345 136.241 23.6109 136.837 23.3639C137.448 23.1169 137.971 22.7392 138.408 22.2306L139.28 23.2332C138.771 23.8434 138.131 24.3084 137.361 24.628C136.604 24.9477 135.768 25.1075 134.852 25.1075Z"
        fill="#030200" />
</svg>